<svg width="294" height="35" viewBox="0 0 294 35" fill="none" xmlns="http://www.w3.org/2000/svg">
<path d="M278 11.1336C278.503 8.55654 278.794 6.41145 280 4.13361C280.512 3.16608 283.5 -0.691541 283.5 1.85584C283.5 2.46059 284.174 7.57806 284.25 7.57806C284.531 7.57806 286.579 5.32087 286.889 5.0225C287.946 4.00347 289.319 2.694 290.889 2.63361C293.189 2.54516 291.709 5.81016 290.611 6.63361C289.714 7.30667 289.074 8.55966 288.25 9.38361C286.894 10.7396 289.203 10.6715 289.472 11.8836C290.265 15.453 281.793 14.1336 279.5 14.1336" stroke="#206D05" stroke-width="2" stroke-linecap="round" stroke-linejoin="round"/>
<path d="M1 34C6.39729 30.5376 12.2987 28.3229 18 25.4722C21.5523 23.6961 25.9025 21.6107 30 21.5C32.2088 21.4403 34.1617 21.4918 36.25 21.0278C39.4353 20.3199 42.073 16.3908 43.8889 13.8889C46.3171 10.5433 48.6702 7.1453 51.4167 4.05556C53.8755 1.28934 54.5026 2.45307 56.3889 5.66667C57.8584 8.17021 58.7564 10.4067 59.75 13.1667C59.8932 13.5644 60.4777 15.7785 60.8333 15.8889C63.2415 16.6363 67.7072 14.8281 70.1111 14.2778C79.673 12.0889 90.0015 10.843 99.6667 13.2778C105.012 14.6243 106.137 15.2955 108.75 10.2222C110.109 7.58367 111.096 5.48124 113.111 3.38889C113.352 3.1386 114.662 1.04716 114.806 1.11112C115.918 1.6056 116.687 3.47186 117.25 4.47223C118.422 6.5552 120.198 8.37032 121.111 10.6111C121.69 12.0322 122.446 12.8921 122.75 14.4722C123.38 17.7457 130.165 15.9121 132.694 15.75C139.039 15.3433 145.209 15 151.611 15C153.939 15 155.95 15.1565 158.222 15.8333C164.206 17.6156 170.367 18.7757 176.278 20.7778C179.608 21.9057 182.589 23.7048 186.028 24.7222C190.629 26.0837 195.264 27.4887 199.889 28.75C212.648 32.2298 226.977 32.0117 240.194 31.4722C247.994 31.1539 256.316 28.452 263.528 25.6945C266.162 24.6872 271.324 23.004 273.222 21C274.762 19.375 275.604 17.5661 276.778 15.7222C277.897 13.9628 278.735 11.865 277.111 10.1111C275.521 8.3943 272.939 9.00001 270.778 9.00001C266.206 9.00001 261.239 11.4317 257.25 13.5C251.366 16.5511 245.23 19.2712 239.028 21.2778C233.098 23.1962 225.973 26.2702 221 30" stroke="#DE6B00" stroke-width="2" stroke-linecap="round" stroke-linejoin="round"/>
<path d="M235.5 23.5C237.197 23.7994 240.5 23.7082 240.5 26" stroke="#DE6B00" stroke-width="2" stroke-linecap="round" stroke-linejoin="round"/>
<path d="M252 17C253.181 17.8949 254.361 18.7224 255 20" stroke="#DE6B00" stroke-width="2" stroke-linecap="round" stroke-linejoin="round"/>
<path d="M268.5 23.5C268.5 20.7273 267.676 20.5276 267 18.5" stroke="#DE6B00" stroke-width="2" stroke-linecap="round" stroke-linejoin="round"/>
</svg>
